<svg width="24" height="24" viewBox="0 0 24 24" fill="none" xmlns="http://www.w3.org/2000/svg">
<path d="M16.7342 2.52066C18.0385 2.52441 19.2882 3.025 20.2104 3.9131C21.1327 4.80119 21.6525 6.00463 21.6564 7.26059V16.7394C21.6525 17.9954 21.1327 19.1988 20.2104 20.0869C19.2882 20.975 18.0385 21.4756 16.7342 21.4793H6.8908C5.58654 21.4756 4.33682 20.975 3.41456 20.0869C2.49231 19.1988 1.97247 17.9954 1.96857 16.7394V7.26059C1.97247 6.00463 2.49231 4.80119 3.41456 3.9131C4.33682 3.025 5.58654 2.52441 6.8908 2.52066H16.7342ZM16.7342 0.625H6.8908C3.10078 0.625 0 3.61094 0 7.26059V16.7394C0 20.3891 3.10078 23.375 6.8908 23.375H16.7342C20.5242 23.375 23.625 20.3891 23.625 16.7394V7.26059C23.625 3.61094 20.5242 0.625 16.7342 0.625Z" fill="currentColor"/>
<path d="M18.2108 7.26074C17.9187 7.26074 17.6332 7.17735 17.3904 7.02111C17.1476 6.86488 16.9584 6.64281 16.8466 6.383C16.7348 6.12318 16.7056 5.83729 16.7626 5.56147C16.8195 5.28566 16.9602 5.0323 17.1667 4.83345C17.3732 4.6346 17.6363 4.49918 17.9227 4.44431C18.2091 4.38945 18.506 4.41761 18.7758 4.52523C19.0456 4.63284 19.2762 4.81509 19.4385 5.04892C19.6007 5.28274 19.6873 5.55765 19.6873 5.83887C19.6877 6.0257 19.6498 6.21078 19.5758 6.38347C19.5017 6.55616 19.393 6.71307 19.2558 6.84518C19.1186 6.97729 18.9556 7.08201 18.7763 7.15333C18.597 7.22464 18.4048 7.26114 18.2108 7.26074ZM11.8125 8.20832C12.5913 8.20832 13.3526 8.43071 14.0002 8.84736C14.6477 9.26401 15.1524 9.85622 15.4504 10.5491C15.7485 11.242 15.8264 12.0044 15.6745 12.7399C15.5226 13.4755 15.1476 14.1511 14.5969 14.6814C14.0462 15.2117 13.3445 15.5728 12.5807 15.7191C11.8169 15.8654 11.0251 15.7904 10.3056 15.5034C9.5861 15.2164 8.97112 14.7304 8.53844 14.1068C8.10577 13.4832 7.87483 12.7501 7.87483 12.0002C7.87594 10.9948 8.29116 10.031 9.02938 9.32011C9.76759 8.60924 10.7685 8.2094 11.8125 8.20832ZM11.8125 6.31266C10.6444 6.31266 9.50244 6.64622 8.53117 7.27117C7.55989 7.89612 6.80287 8.78439 6.35584 9.82364C5.90881 10.8629 5.79185 12.0065 6.01974 13.1097C6.24763 14.213 6.81015 15.2264 7.63615 16.0218C8.46216 16.8172 9.51455 17.3589 10.6602 17.5784C11.8059 17.7978 12.9935 17.6852 14.0727 17.2547C15.1519 16.8242 16.0744 16.0953 16.7234 15.16C17.3724 14.2247 17.7187 13.125 17.7187 12.0002C17.7187 10.4917 17.0965 9.0451 15.9888 7.97849C14.8812 6.91187 13.3789 6.31266 11.8125 6.31266Z" fill="currentColor"/>
</svg>
