<svg width="26" height="22" viewBox="0 0 26 22" fill="none" xmlns="http://www.w3.org/2000/svg">
<path d="M25.5625 3.27442C24.613 3.68699 23.6084 3.9588 22.5804 4.08126C23.6607 3.44865 24.4732 2.44363 24.8654 1.2547C23.8439 1.85196 22.7283 2.27103 21.5663 2.49395C21.077 1.98113 20.4885 1.57316 19.8366 1.29485C19.1847 1.01654 18.483 0.873699 17.7742 0.875009C14.9044 0.875009 12.5819 3.16368 12.5819 5.98497C12.5799 6.3774 12.6249 6.76866 12.7159 7.1504C10.658 7.05393 8.64295 6.52897 6.7996 5.60911C4.95625 4.68925 3.3252 3.39474 2.0108 1.80841C1.54968 2.58577 1.30581 3.47273 1.30469 4.37657C1.30469 6.14844 2.22912 7.71466 3.625 8.63223C2.79798 8.61261 1.98791 8.39372 1.26355 7.99415V8.05743C1.26355 10.5359 3.05652 12.5979 5.42957 13.0672C4.98332 13.1862 4.52347 13.2464 4.06164 13.2465C3.73394 13.2471 3.40698 13.2153 3.08553 13.1516C3.74523 15.1818 5.66529 16.6584 7.93973 16.7006C6.09159 18.1249 3.82255 18.8947 1.48926 18.8891C1.07509 18.8885 0.66131 18.8638 0.25 18.8152C2.62367 20.3309 5.38287 21.1327 8.19918 21.125C17.7631 21.125 22.988 13.3361 22.988 6.58087C22.988 6.35938 22.9822 6.1379 22.9717 5.92169C23.9858 5.20031 24.8631 4.30386 25.5625 3.27442Z" fill="currentColor"/>
</svg>
